<?xml version="1.0"?>
<svg xmlns="http://www.w3.org/2000/svg" id="Capa_1" enable-background="new 0 0 512 512" height="512px" viewBox="0 0 512 512" width="512px"><path d="m162.86 95.38c-22.11 7.39-41.4 22.05-54.5 41.98-29.42 19.32-47.36 52.16-47.36 87.64 0 4.67.31 9.3.93 13.86-35.15-6.2-61.93-36.96-61.93-73.86 0-41.36 33.64-75 75-75 10.35 0 20.41 2.17 30 6.48 9.59-4.31 19.65-6.48 30-6.48 9.69 0 19.13 1.88 27.86 5.38z" fill="#FFFFFF"/><path d="m512 165c0 36.9-26.78 67.66-61.93 73.86.62-4.56.93-9.19.93-13.86 0-35.48-17.94-68.32-47.36-87.64-13.09-19.93-32.38-34.59-54.5-41.98 8.73-3.5 18.17-5.38 27.86-5.38 10.35 0 20.41 2.17 30 6.48 9.59-4.31 19.65-6.48 30-6.48 41.36 0 75 33.64 75 75z" fill="#FFFFFF"/><path d="m381.787 159.213c-13.059-23.993-38.307-39.213-65.787-39.213-23.455 0-45.604 11.306-59.689 30h-.621c-14.085-18.694-36.234-30-59.689-30-27.479 0-52.726 15.22-65.787 39.213-23.993 13.06-39.214 38.308-39.214 65.787s15.221 52.727 39.213 65.787c13.061 23.993 38.308 39.213 65.787 39.213 23.455 0 45.604-11.306 59.689-30h.621c14.085 18.694 36.234 30 59.689 30 27.48 0 52.728-15.22 65.787-39.213 23.994-13.06 39.214-38.308 39.214-65.787s-15.22-52.727-39.213-65.787z" fill="#FFFFFF"/><path d="m408.68 63.99c-.56.15-1.12.32-1.68.49-9.73-2.98-19.78-4.48-30-4.48-28.22 0-54.9 11.4-74.35 30.88-16.78 2.21-32.82 8.53-46.65 18.23-13.83-9.7-29.87-16.02-46.65-18.23-19.45-19.48-46.13-30.88-74.35-30.88-10.22 0-20.27 1.5-30 4.48-.56-.17-1.12-.34-1.68-.49 6.68-10.19 15.86-18.78 26.89-24.78 13.06-23.99 38.31-39.21 65.79-39.21 23.46 0 45.6 11.31 59.69 30h.62c14.09-18.69 36.23-30 59.69-30 27.48 0 52.73 15.22 65.79 39.21 11.03 6 20.21 14.59 26.89 24.78z" fill="#FFFFFF"/><path d="m342.35 356.63c-14.72 26.54-26.35 53.72-26.35 81.53v73.84h-120v-73.84c0-27.8-11.62-54.98-26.34-81.52 8.49 2.2 17.33 3.36 26.34 3.36 11.25 0 22.34-1.87 32.85-5.4 5.729 6.083 11.065 11.677 15.28 17.14l11.87 15.37 11.87-15.37c5.033-6.524 12.023-13.594 15.27-17.14 10.52 3.53 21.61 5.4 32.86 5.4 9.01 0 17.86-1.16 26.35-3.37z" fill="#FFFFFF"/></svg>
