<?xml version="1.0"?>
<svg xmlns="http://www.w3.org/2000/svg" id="Layer_1" enable-background="new 0 0 512 512" height="512px" viewBox="0 0 512 512" width="512px"><path d="m437 75c-6.95 0-13.93 1.16-20.65 3.38-10.37-35.13-38.07-59.63-70.35-59.63-12.18 0-24.13 3.66-34.86 10.52-14.03-18.39-34.02-29.27-55.14-29.27s-41.11 10.88-55.14 29.27c-10.73-6.86-22.68-10.52-34.86-10.52-32.28 0-59.98 24.5-70.35 59.63-6.72-2.22-13.7-3.38-20.65-3.38-44.369 0-75 43.594-75 90 0 46.684 30.854 90 75 90 6.95 0 13.93-1.16 20.65-3.38 10.37 35.13 38.07 59.63 70.35 59.63 12.18 0 24.13-3.66 34.86-10.52 14.03 18.39 34.02 29.27 55.14 29.27s41.11-10.88 55.14-29.27c10.73 6.86 22.68 10.52 34.86 10.52 32.28 0 59.98-24.5 70.35-59.63 6.72 2.22 13.7 3.38 20.65 3.38 44.37 0 75-43.595 75-90 0-46.686-30.854-90-75-90zm-101.84 107.91c-10.48-7.94-23.34-10.98-36.22-8.53-12.62 2.39-23.6 9.92-30.13 20.64l-12.89 21.17-12.77-21.23c-6.61-10.99-17.66-18.64-30.3-20.99-12.65-2.35-25.74.83-35.89 8.74l-18.43-23.67c16.91-13.18 38.71-18.48 59.8-14.57 14.31 2.66 27.39 9.4 37.76 19.18 10.26-9.49 23.16-16.07 37.25-18.75 21.02-3.98 42.87 1.16 59.95 14.11z" fill="#EEC344"/><path d="m358.07 340.46c-17.7 34.25-27.07 72.47-27.07 112.13v59.41h-150v-59.41c0-39.66-9.37-77.88-27.07-112.13 3.97.52 8 .79 12.07.79 9.49 0 18.94-1.5 28.06-4.42 13.81 11.57 29.92 19.13 46.94 21.93v61.24h30v-61.24c17.02-2.8 33.13-10.36 46.94-21.93 9.12 2.92 18.57 4.42 28.06 4.42 4.07 0 8.1-.27 12.07-.79z" fill="#EEC344"/></svg>
