<?xml version="1.0"?>
<svg xmlns="http://www.w3.org/2000/svg" id="Capa_1" enable-background="new 0 0 512 512" height="512px" viewBox="0 0 512 512" width="512px"><path d="m281.801 256c0-5.627.813-11.089 2.363-16.26-5.253-1.244-10.39-3.271-15.263-6.084s-9.197-6.249-12.9-10.176c-3.704 3.928-8.028 7.363-12.9 10.176s-10.01 4.84-15.263 6.084c1.549 5.172 2.363 10.634 2.363 16.261s-.813 11.089-2.363 16.261c5.253 1.244 10.39 3.27 15.263 6.084 4.873 2.813 9.197 6.249 12.9 10.176 3.704-3.928 8.028-7.363 12.9-10.176 4.873-2.813 10.01-4.84 15.263-6.084-1.55-5.173-2.363-10.635-2.363-16.262z" fill="#EEC344"/><path d="m432.729 340.714c12.347-25.654 19.271-54.39 19.271-84.714s-6.924-59.06-19.271-84.714l-108.027 62.369c-8.078 4.664-12.901 13.017-12.901 22.345s4.823 17.681 12.901 22.345z" fill="#EEC344"/><path d="m271 185.331c0 9.328 4.822 17.681 12.9 22.344 8.077 4.664 17.723 4.663 25.802 0l107.977-62.34c-32.695-47.616-85.846-80.141-146.679-84.766z" fill="#EEC344"/><path d="m187.298 278.345c8.078-4.664 12.901-13.017 12.901-22.345s-4.823-17.681-12.901-22.345l-108.027-62.369c-12.347 25.654-19.271 54.39-19.271 84.714s6.924 59.06 19.271 84.714z" fill="#EEC344"/><path d="m309.702 304.325c-8.079-4.664-17.724-4.664-25.802 0s-12.9 13.017-12.9 22.344v124.762c60.833-4.625 113.984-37.15 146.679-84.766z" fill="#EEC344"/><path d="m256 0c-141.385 0-256 114.615-256 256s114.615 256 256 256 256-114.615 256-256-114.615-256-256-256zm159.807 415.806c-42.687 42.686-99.44 66.194-159.807 66.194s-117.12-23.508-159.807-66.194c-42.685-42.685-66.193-99.439-66.193-159.806s23.508-117.121 66.193-159.806c42.687-42.686 99.44-66.194 159.807-66.194s117.12 23.508 159.807 66.194c42.685 42.685 66.193 99.439 66.193 159.806s-23.508 117.121-66.193 159.806z" fill="#EEC344"/><path d="m241 326.669c0-9.328-4.822-17.681-12.9-22.344-8.079-4.665-17.725-4.664-25.802 0l-107.977 62.34c32.694 47.616 85.846 80.14 146.679 84.766z" fill="#EEC344"/><path d="m202.298 207.675c8.079 4.664 17.724 4.664 25.802 0s12.9-13.017 12.9-22.344v-124.762c-60.833 4.625-113.984 37.15-146.679 84.766z" fill="#EEC344"/></svg>
