<svg xmlns="http://www.w3.org/2000/svg" width="512" height="512" viewBox="0 0 512 512"><path fill="#FFF" d="m136 92c41.71875 0 78.894531 24.902344 95.640625 61.683594 14.097656 2.476562 21.523437 5.929687 24.542969 7.125 3.003906-1.175782 8.511718-4.425782 24.511718-7.09375 16.6875-37.238282 53.234376-61.714844 95.304688-61.714844 13.417969 0 26.632812 2.59375 38.980469 7.589844 7.027343-3.113282 14.484375-4.941406 22.085937-6.140625-14.113281-20.035157-37.511718-32.964844-63.617187-31.390625-7.644531-21.621094-33.324219-37.40625-55.941407-29.890625-13.796874-19.9375-36.519531-32.167969-61.507812-32.167969s-47.710938 12.230469-61.507812 32.167969c-22.675782-7.515625-48.3125 8.269531-55.941407 29.890625-26.207031-1.628906-49.605469 11.316406-63.691406 31.382812 7.628906 1.199219 15.109375 3.027344 22.160156 6.148438 12.347657-4.996094 25.5625-7.589844 38.980469-7.589844zm0 0"/><path fill="#FFF" d="m301.761719 350.414062c-5.113281 5.886719-7.339844 12.246094-5.976563 17.007813l9.496094 33.234375c8.957031-12.070312 17.128906-24.609375 24.363281-37.757812l-17.933593-25.78125c-3 4.585937-6.269532 9.050781-9.949219 13.296874zm0 0"/><path fill="#FFF" d="m451 122c-12.742188 0-25.019531 4.117188-35.1875 11.601562-11.90625-7.542968-25.648438-11.601562-39.8125-11.601562-35.769531 0-65.769531 25.179688-73.109375 60-3.851563-.058594-7.65625.347656-11.460937.746094 16.230468 14.640625 28.605468 33.5625 34.691406 54.859375 6.660156 23.339843 6.316406 46.824219-.167969 68.5625 4.332031 3.957031-1.921875-3.078125 18.941406 26.09375 6.484375-15.355469 11.945313-31.1875 16.105469-47.511719v-87.75c0-8.289062 6.710938-15 15-15s15 6.710938 15 15v65.726562l38.289062-19.144531c7.398438-3.691406 16.421876-.703125 20.128907 6.707031 3.707031 7.414063.703125 16.421876-6.707031 20.128907l-54.144532 27.070312c-5.640625 20.851563-13.078125 41.015625-22.210937 60.332031l41.179687 4.253907c8.25.863281 14.238282 8.230469 13.390625 16.464843-.816406 7.800782-7.609375 14.125-16.464843 13.386719l-53.058594-5.476562c-10.417969 17.742187-22.472656 34.492187-35.816406 50.285156l13.683593 47.902344c1.359375 4.773437 1.613281 9.675781 1.363281 14.550781 20.585938-10.519531 37.890626-26.957031 49.113282-48.023438 20.347656 3.03125 45.894531-.847656 75.558594-30.804687 16.757812-16.917969 27.117187-38.863281 26.679687-60.160156-.265625-13.054688-3.398437-25.695313-9.171875-37.339844 23.792969-12.800781 39.1875-37.675781 39.1875-65.859375 0-14.164062-4.058594-27.90625-11.601562-39.8125 7.484374-10.167969 11.601562-22.445312 11.601562-35.1875 0-33.089844-27.910156-60-61-60zm0 0"/><path fill="#FFF" d="m40.183594 322.859375c-5.769532 11.644531-9.90625 24.285156-10.167969 37.339844-.441406 21.296875 9.921875 43.242187 26.691406 60.175781 29.664063 29.953125 55.167969 33.835938 75.542969 30.789062 19.894531 37.339844 58.507812 60.835938 101.585938 60.835938h47.179687l-25.058594-18.792969c-38.65625-28.984375-70.714843-65.550781-94.964843-106.800781l-53.453126 5.519531c-8.878906.742188-15.652343-5.597656-16.464843-13.386719-.851563-8.234374 5.140625-15.601562 13.386719-16.464843l41.355468-4.269531c-9.171875-19.339844-16.675781-39.480469-22.320312-60.285157l-54.207032-27.101562c-7.410156-3.707031-10.414062-12.714844-6.707031-20.128907 3.71875-7.410156 12.699219-10.398437 20.125-6.707031l38.292969 19.144531v-65.726562c0-8.289062 6.710938-15 15-15s15 6.710938 15 15v87.898438c4.148438 16.238281 9.617188 32.027343 16.113281 47.351562l16.566407-23.820312c4.71875-6.796876 14.046874-8.480469 20.890624-3.75 6.796876 4.730468 8.480469 14.078124 3.75 20.890624l-26.265624 37.761719c22.695312 41.144531 53.949218 77.425781 91.890624 105.882813l25.097657 18.824218-32.101563-112.371093c-4.21875-14.765625.207032-31.128907 12.144532-44.898438 20.289062-23.421875 26.910156-54.359375 18.191406-84.914062-11.265625-39.4375-49.171875-65.34375-87.785156-63.855469-6.972657-34.1875-37.265626-60-73.492188-60-14.164062 0-27.90625 4.058594-39.8125 11.601562-10.167969-7.484374-22.445312-11.601562-35.1875-11.601562-33.089844 0-61 26.910156-61 60 0 12.742188 4.117188 25.019531 11.601562 35.1875-7.542968 11.90625-11.601562 25.648438-11.601562 39.8125 0 28.183594 16.394531 53.058594 40.183594 65.859375zm0 0"/></svg>