<?xml version="1.0"?>
<svg xmlns="http://www.w3.org/2000/svg" height="512px" viewBox="0 0 512 512" width="512px"><path d="m136 150h16.074219c1.199219 8.34375 3.382812 16.375 6.429687 23.96875l-13.925781 8.042969c-7.175781 4.140625-9.632813 13.3125-5.492187 20.488281 2.777343 4.8125 7.820312 7.503906 13.003906 7.503906 2.546875 0 5.125-.648437 7.488281-2.015625l13.960937-8.058593c5.136719 6.507812 11.023438 12.394531 17.53125 17.53125l-8.058593 13.960937c-4.144531 7.175781-1.6875 16.347656 5.488281 20.492187 2.363281 1.363282 4.941406 2.011719 7.484375 2.011719 5.1875 0 10.226563-2.691406 13.003906-7.503906l8.042969-13.925781c7.59375 3.050781 15.625 5.230468 23.96875 6.429687v16.074219c0 8.285156 6.714844 15 15 15s15-6.714844 15-15v-16.074219c8.34375-1.199219 16.375-3.382812 23.96875-6.429687l8.042969 13.925781c2.777343 4.8125 7.816406 7.503906 13.003906 7.503906 2.542969 0 5.125-.648437 7.484375-2.011719 7.175781-4.144531 9.632812-13.316406 5.488281-20.492187l-8.058593-13.960937c6.507812-5.136719 12.394531-11.023438 17.53125-17.53125l13.960937 8.058593c2.363281 1.367188 4.941406 2.015625 7.488281 2.015625 5.183594 0 10.226563-2.691406 13.003906-7.503906 4.140626-7.175781 1.683594-16.347656-5.492187-20.488281l-13.925781-8.042969c3.050781-7.59375 5.230468-15.625 6.429687-23.96875h16.074219c8.285156 0 15-6.714844 15-15s-6.714844-15-15-15h-16.074219c-1.199219-8.34375-3.382812-16.375-6.429687-23.96875l13.925781-8.042969c7.175781-4.140625 9.632813-13.3125 5.492187-20.488281-4.144531-7.175781-13.320312-9.632812-20.492187-5.488281l-13.960937 8.058593c-5.136719-6.507812-11.023438-12.394531-17.53125-17.53125l8.058593-13.960937c4.144531-7.175781 1.6875-16.347656-5.488281-20.488281-7.175781-4.144532-16.347656-1.6875-20.488281 5.488281l-8.042969 13.925781c-7.59375-3.046875-15.625-5.230468-23.96875-6.425781v-16.078125c0-8.285156-6.714844-15-15-15s-15 6.714844-15 15v16.074219c-8.34375 1.199219-16.375 3.382812-23.96875 6.429687l-8.042969-13.925781c-4.140625-7.175781-13.316406-9.632813-20.488281-5.492187-7.175781 4.144531-9.632812 13.316406-5.488281 20.492187l8.058593 13.960937c-6.507812 5.136719-12.394531 11.023438-17.53125 17.53125l-13.960937-8.0625c-7.175781-4.144531-16.351563-1.683593-20.492187 5.492188-4.140626 7.171875-1.683594 16.347656 5.492187 20.488281l13.925781 8.039063c-3.050781 7.597656-5.230468 15.628906-6.429687 23.972656h-16.074219c-8.285156 0-15 6.714844-15 15 0 8.28125 6.714844 15 15 15zm120-90c41.355469 0 75 33.644531 75 75s-33.644531 75-75 75-75-33.644531-75-75 33.644531-75 75-75zm0 0" fill="#046866"/><path d="m497 242h-31c-68.113281 0-132.148438 26.523438-180.3125 74.6875-11.074219 11.074219-20.992188 22.996094-29.71875 35.609375-47.328125-68.59375-125.691406-110.296875-209.96875-110.296875h-31c-8.285156 0-15 6.714844-15 15v240c0 8.285156 6.714844 15 15 15h482c8.285156 0 15-6.714844 15-15v-240c0-8.285156-6.714844-15-15-15zm-104.492188 240h-30.433593c7.304687-50.816406 51.121093-90 103.925781-90h16v30h-16c-36.21875 0-66.523438 25.808594-73.492188 60zm-60.667968 0h-30.152344c7.605469-83.976562 78.386719-150 164.3125-150h16v30h-16c-69.367188 0-126.675781 52.59375-134.160156 120zm-285.839844-210c79.019531 0 152.148438 41.550781 192.796875 108.976562-5.925781 11.570313-10.953125 23.570313-15.019531 35.914063-30.621094-67.683594-98.789063-114.890625-177.777344-114.890625h-16v-30zm0 150h-16v-30h16c52.804688 0 96.621094 39.183594 103.925781 90h-30.433593c-6.96875-34.191406-37.273438-60-73.492188-60zm0-60h-16v-30h16c85.925781 0 156.707031 66.023438 164.3125 150h-30.152344c-7.484375-67.40625-64.792968-120-134.160156-120zm-16 90h16c19.554688 0 36.226562 12.539062 42.421875 30h-58.421875zm238.464844-62.917969c.453125-.679687.84375-1.394531 1.179687-2.136719 9.984375-17.75 22.460938-34.25 37.253907-49.042968 42.5-42.5 99-65.902344 159.101562-65.902344h16v30h-16c-102.476562 0-186.742188 79.457031-194.429688 180h-30.082031c2.152344-32.9375 11.398438-64.496094 26.976563-92.917969zm155.113281 92.917969c6.195313-17.460938 22.867187-30 42.421875-30h16v30zm0 0" fill="#046866"/></svg>
